<mxfile host="Electron" agent="Mozilla/5.0 (Windows NT 10.0; Win64; x64) AppleWebKit/537.36 (KHTML, like Gecko) draw.io/24.7.8 Chrome/128.0.6613.36 Electron/32.0.1 Safari/537.36" version="24.7.8">
  <diagram name="Page-1" id="IwYgKuLK2cbI-2wsSvXa">
    <mxGraphModel dx="1723" dy="1008" grid="1" gridSize="10" guides="1" tooltips="1" connect="1" arrows="1" fold="1" page="1" pageScale="1" pageWidth="850" pageHeight="1100" math="0" shadow="0">
      <root>
        <mxCell id="0" />
        <mxCell id="1" parent="0" />
        <mxCell id="Y8lYUrGbxnHDyQjCtU0--3" value="" style="edgeStyle=orthogonalEdgeStyle;rounded=0;orthogonalLoop=1;jettySize=auto;html=1;" parent="1" source="Y8lYUrGbxnHDyQjCtU0--1" target="Y8lYUrGbxnHDyQjCtU0--2" edge="1">
          <mxGeometry relative="1" as="geometry" />
        </mxCell>
        <mxCell id="Y8lYUrGbxnHDyQjCtU0--1" value="Mulai" style="rounded=1;whiteSpace=wrap;html=1;" parent="1" vertex="1">
          <mxGeometry x="370" y="600" width="60" height="30" as="geometry" />
        </mxCell>
        <mxCell id="Y8lYUrGbxnHDyQjCtU0--16" value="" style="edgeStyle=orthogonalEdgeStyle;rounded=0;orthogonalLoop=1;jettySize=auto;html=1;" parent="1" source="Y8lYUrGbxnHDyQjCtU0--2" target="Y8lYUrGbxnHDyQjCtU0--15" edge="1">
          <mxGeometry relative="1" as="geometry" />
        </mxCell>
        <mxCell id="Y8lYUrGbxnHDyQjCtU0--2" value="Menu" style="shape=parallelogram;perimeter=parallelogramPerimeter;whiteSpace=wrap;html=1;fixedSize=1;rounded=1;" parent="1" vertex="1">
          <mxGeometry x="350" y="660" width="100" height="50" as="geometry" />
        </mxCell>
        <mxCell id="iGcprp5H49IWbYSk4zgo-2" value="" style="edgeStyle=orthogonalEdgeStyle;rounded=0;orthogonalLoop=1;jettySize=auto;html=1;" parent="1" source="Y8lYUrGbxnHDyQjCtU0--15" target="iGcprp5H49IWbYSk4zgo-1" edge="1">
          <mxGeometry relative="1" as="geometry" />
        </mxCell>
        <mxCell id="Y8lYUrGbxnHDyQjCtU0--15" value="input menu" style="shape=parallelogram;perimeter=parallelogramPerimeter;whiteSpace=wrap;html=1;fixedSize=1;rounded=1;" parent="1" vertex="1">
          <mxGeometry x="340" y="740" width="120" height="50" as="geometry" />
        </mxCell>
        <mxCell id="iGcprp5H49IWbYSk4zgo-4" value="" style="edgeStyle=orthogonalEdgeStyle;rounded=0;orthogonalLoop=1;jettySize=auto;html=1;" parent="1" source="iGcprp5H49IWbYSk4zgo-1" target="iGcprp5H49IWbYSk4zgo-3" edge="1">
          <mxGeometry relative="1" as="geometry" />
        </mxCell>
        <mxCell id="iGcprp5H49IWbYSk4zgo-120" value="tidak" style="edgeLabel;html=1;align=center;verticalAlign=middle;resizable=0;points=[];" parent="iGcprp5H49IWbYSk4zgo-4" vertex="1" connectable="0">
          <mxGeometry x="-0.175" y="-1" relative="1" as="geometry">
            <mxPoint as="offset" />
          </mxGeometry>
        </mxCell>
        <mxCell id="iGcprp5H49IWbYSk4zgo-1" value="menu == &quot;1&quot;" style="rhombus;whiteSpace=wrap;html=1;rounded=1;" parent="1" vertex="1">
          <mxGeometry x="360" y="810" width="80" height="80" as="geometry" />
        </mxCell>
        <mxCell id="iGcprp5H49IWbYSk4zgo-6" value="" style="edgeStyle=orthogonalEdgeStyle;rounded=0;orthogonalLoop=1;jettySize=auto;html=1;" parent="1" source="iGcprp5H49IWbYSk4zgo-3" target="iGcprp5H49IWbYSk4zgo-5" edge="1">
          <mxGeometry relative="1" as="geometry" />
        </mxCell>
        <mxCell id="iGcprp5H49IWbYSk4zgo-121" value="tidak" style="edgeLabel;html=1;align=center;verticalAlign=middle;resizable=0;points=[];" parent="iGcprp5H49IWbYSk4zgo-6" vertex="1" connectable="0">
          <mxGeometry x="0.075" y="-2" relative="1" as="geometry">
            <mxPoint as="offset" />
          </mxGeometry>
        </mxCell>
        <mxCell id="iGcprp5H49IWbYSk4zgo-3" value="menu == &quot;2&quot;" style="rhombus;whiteSpace=wrap;html=1;rounded=1;" parent="1" vertex="1">
          <mxGeometry x="520" y="810" width="80" height="80" as="geometry" />
        </mxCell>
        <mxCell id="iGcprp5H49IWbYSk4zgo-8" value="" style="edgeStyle=orthogonalEdgeStyle;rounded=0;orthogonalLoop=1;jettySize=auto;html=1;" parent="1" source="iGcprp5H49IWbYSk4zgo-5" target="iGcprp5H49IWbYSk4zgo-7" edge="1">
          <mxGeometry relative="1" as="geometry" />
        </mxCell>
        <mxCell id="iGcprp5H49IWbYSk4zgo-123" value="tidak" style="edgeLabel;html=1;align=center;verticalAlign=middle;resizable=0;points=[];" parent="iGcprp5H49IWbYSk4zgo-8" vertex="1" connectable="0">
          <mxGeometry x="-0.1208" relative="1" as="geometry">
            <mxPoint y="1" as="offset" />
          </mxGeometry>
        </mxCell>
        <mxCell id="iGcprp5H49IWbYSk4zgo-5" value="menu == &quot;3&quot;" style="rhombus;whiteSpace=wrap;html=1;rounded=1;" parent="1" vertex="1">
          <mxGeometry x="680" y="810" width="80" height="80" as="geometry" />
        </mxCell>
        <mxCell id="iGcprp5H49IWbYSk4zgo-10" value="" style="edgeStyle=orthogonalEdgeStyle;rounded=0;orthogonalLoop=1;jettySize=auto;html=1;" parent="1" source="iGcprp5H49IWbYSk4zgo-7" target="iGcprp5H49IWbYSk4zgo-9" edge="1">
          <mxGeometry relative="1" as="geometry" />
        </mxCell>
        <mxCell id="iGcprp5H49IWbYSk4zgo-124" value="tidak" style="edgeLabel;html=1;align=center;verticalAlign=middle;resizable=0;points=[];" parent="iGcprp5H49IWbYSk4zgo-10" vertex="1" connectable="0">
          <mxGeometry x="-0.1458" relative="1" as="geometry">
            <mxPoint y="1" as="offset" />
          </mxGeometry>
        </mxCell>
        <mxCell id="iGcprp5H49IWbYSk4zgo-7" value="menu == &quot;4&quot;" style="rhombus;whiteSpace=wrap;html=1;rounded=1;" parent="1" vertex="1">
          <mxGeometry x="840" y="810" width="80" height="80" as="geometry" />
        </mxCell>
        <mxCell id="iGcprp5H49IWbYSk4zgo-156" value="" style="edgeStyle=orthogonalEdgeStyle;rounded=0;orthogonalLoop=1;jettySize=auto;html=1;" parent="1" source="iGcprp5H49IWbYSk4zgo-9" target="iGcprp5H49IWbYSk4zgo-154" edge="1">
          <mxGeometry relative="1" as="geometry" />
        </mxCell>
        <mxCell id="iGcprp5H49IWbYSk4zgo-157" value="ya" style="edgeLabel;html=1;align=center;verticalAlign=middle;resizable=0;points=[];" parent="iGcprp5H49IWbYSk4zgo-156" vertex="1" connectable="0">
          <mxGeometry x="0.0806" y="1" relative="1" as="geometry">
            <mxPoint y="-3" as="offset" />
          </mxGeometry>
        </mxCell>
        <mxCell id="iGcprp5H49IWbYSk4zgo-9" value="menu == &quot;5&quot;" style="rhombus;whiteSpace=wrap;html=1;rounded=1;" parent="1" vertex="1">
          <mxGeometry x="1000" y="810" width="80" height="80" as="geometry" />
        </mxCell>
        <mxCell id="iGcprp5H49IWbYSk4zgo-97" style="edgeStyle=orthogonalEdgeStyle;rounded=0;orthogonalLoop=1;jettySize=auto;html=1;exitX=0.5;exitY=1;exitDx=0;exitDy=0;entryX=0;entryY=0.5;entryDx=0;entryDy=0;" parent="1" source="iGcprp5H49IWbYSk4zgo-49" target="Y8lYUrGbxnHDyQjCtU0--2" edge="1">
          <mxGeometry relative="1" as="geometry">
            <Array as="points">
              <mxPoint x="400" y="1090" />
              <mxPoint x="310" y="1090" />
              <mxPoint x="310" y="685" />
            </Array>
          </mxGeometry>
        </mxCell>
        <mxCell id="iGcprp5H49IWbYSk4zgo-54" value="" style="endArrow=classic;html=1;rounded=0;entryX=0.2;entryY=0.102;entryDx=0;entryDy=0;entryPerimeter=0;" parent="1" edge="1">
          <mxGeometry width="50" height="50" relative="1" as="geometry">
            <mxPoint x="420" y="710" as="sourcePoint" />
            <mxPoint x="450" y="710" as="targetPoint" />
            <Array as="points">
              <mxPoint x="430" y="710" />
            </Array>
          </mxGeometry>
        </mxCell>
        <mxCell id="iGcprp5H49IWbYSk4zgo-55" value="" style="endArrow=classic;html=1;rounded=0;entryX=0.2;entryY=0.102;entryDx=0;entryDy=0;entryPerimeter=0;" parent="1" edge="1">
          <mxGeometry width="50" height="50" relative="1" as="geometry">
            <mxPoint x="340" y="740" as="sourcePoint" />
            <mxPoint x="370" y="740" as="targetPoint" />
            <Array as="points">
              <mxPoint x="350" y="740" />
            </Array>
          </mxGeometry>
        </mxCell>
        <mxCell id="iGcprp5H49IWbYSk4zgo-69" value="" style="group" parent="1" vertex="1" connectable="0">
          <mxGeometry x="500" y="890" width="120" height="90" as="geometry" />
        </mxCell>
        <mxCell id="iGcprp5H49IWbYSk4zgo-61" value="" style="edgeStyle=orthogonalEdgeStyle;rounded=0;orthogonalLoop=1;jettySize=auto;html=1;" parent="iGcprp5H49IWbYSk4zgo-69" edge="1">
          <mxGeometry relative="1" as="geometry">
            <mxPoint x="60" as="sourcePoint" />
            <mxPoint x="60.018181818181915" y="30" as="targetPoint" />
          </mxGeometry>
        </mxCell>
        <mxCell id="iGcprp5H49IWbYSk4zgo-126" value="ya" style="edgeLabel;html=1;align=center;verticalAlign=middle;resizable=0;points=[];" parent="iGcprp5H49IWbYSk4zgo-61" vertex="1" connectable="0">
          <mxGeometry x="-0.2633" y="1" relative="1" as="geometry">
            <mxPoint as="offset" />
          </mxGeometry>
        </mxCell>
        <mxCell id="iGcprp5H49IWbYSk4zgo-68" value="" style="group" parent="iGcprp5H49IWbYSk4zgo-69" vertex="1" connectable="0">
          <mxGeometry y="29.639999999999986" width="120" height="60.360000000000014" as="geometry" />
        </mxCell>
        <mxCell id="iGcprp5H49IWbYSk4zgo-65" value="masukkan nama pelanggan baru" style="shape=parallelogram;perimeter=parallelogramPerimeter;whiteSpace=wrap;html=1;fixedSize=1;rounded=1;" parent="iGcprp5H49IWbYSk4zgo-68" vertex="1">
          <mxGeometry y="0.36000000000001364" width="120" height="60" as="geometry" />
        </mxCell>
        <mxCell id="iGcprp5H49IWbYSk4zgo-66" value="" style="endArrow=classic;html=1;rounded=0;entryX=0.2;entryY=0.102;entryDx=0;entryDy=0;entryPerimeter=0;" parent="iGcprp5H49IWbYSk4zgo-68" edge="1">
          <mxGeometry width="50" height="50" relative="1" as="geometry">
            <mxPoint as="sourcePoint" />
            <mxPoint x="30" as="targetPoint" />
            <Array as="points">
              <mxPoint x="10" />
            </Array>
          </mxGeometry>
        </mxCell>
        <mxCell id="iGcprp5H49IWbYSk4zgo-71" value="" style="group" parent="1" vertex="1" connectable="0">
          <mxGeometry x="500" y="980" width="120" height="90" as="geometry" />
        </mxCell>
        <mxCell id="iGcprp5H49IWbYSk4zgo-72" value="" style="edgeStyle=orthogonalEdgeStyle;rounded=0;orthogonalLoop=1;jettySize=auto;html=1;" parent="iGcprp5H49IWbYSk4zgo-71" edge="1">
          <mxGeometry relative="1" as="geometry">
            <mxPoint x="60" as="sourcePoint" />
            <mxPoint x="60.018181818181915" y="30" as="targetPoint" />
          </mxGeometry>
        </mxCell>
        <mxCell id="iGcprp5H49IWbYSk4zgo-73" value="" style="group" parent="iGcprp5H49IWbYSk4zgo-71" vertex="1" connectable="0">
          <mxGeometry y="29.639999999999986" width="120" height="60.360000000000014" as="geometry" />
        </mxCell>
        <mxCell id="iGcprp5H49IWbYSk4zgo-74" value="masukkan&lt;div&gt;tanggal booking&lt;/div&gt;" style="shape=parallelogram;perimeter=parallelogramPerimeter;whiteSpace=wrap;html=1;fixedSize=1;rounded=1;" parent="iGcprp5H49IWbYSk4zgo-73" vertex="1">
          <mxGeometry y="0.36000000000001364" width="120" height="60" as="geometry" />
        </mxCell>
        <mxCell id="iGcprp5H49IWbYSk4zgo-75" value="" style="endArrow=classic;html=1;rounded=0;entryX=0.2;entryY=0.102;entryDx=0;entryDy=0;entryPerimeter=0;" parent="iGcprp5H49IWbYSk4zgo-73" edge="1">
          <mxGeometry width="50" height="50" relative="1" as="geometry">
            <mxPoint as="sourcePoint" />
            <mxPoint x="30" as="targetPoint" />
            <Array as="points">
              <mxPoint x="10" />
            </Array>
          </mxGeometry>
        </mxCell>
        <mxCell id="iGcprp5H49IWbYSk4zgo-76" value="" style="group" parent="1" vertex="1" connectable="0">
          <mxGeometry x="500" y="1070" width="120" height="90" as="geometry" />
        </mxCell>
        <mxCell id="iGcprp5H49IWbYSk4zgo-77" value="" style="edgeStyle=orthogonalEdgeStyle;rounded=0;orthogonalLoop=1;jettySize=auto;html=1;" parent="iGcprp5H49IWbYSk4zgo-76" edge="1">
          <mxGeometry relative="1" as="geometry">
            <mxPoint x="60" as="sourcePoint" />
            <mxPoint x="60.018181818181915" y="30" as="targetPoint" />
          </mxGeometry>
        </mxCell>
        <mxCell id="iGcprp5H49IWbYSk4zgo-78" value="" style="group" parent="iGcprp5H49IWbYSk4zgo-76" vertex="1" connectable="0">
          <mxGeometry y="29.639999999999986" width="120" height="60.360000000000014" as="geometry" />
        </mxCell>
        <mxCell id="iGcprp5H49IWbYSk4zgo-79" value="masukkan nama pelanggan baru" style="shape=parallelogram;perimeter=parallelogramPerimeter;whiteSpace=wrap;html=1;fixedSize=1;rounded=1;" parent="iGcprp5H49IWbYSk4zgo-78" vertex="1">
          <mxGeometry y="0.36000000000001364" width="120" height="60" as="geometry" />
        </mxCell>
        <mxCell id="iGcprp5H49IWbYSk4zgo-80" value="" style="endArrow=classic;html=1;rounded=0;entryX=0.2;entryY=0.102;entryDx=0;entryDy=0;entryPerimeter=0;" parent="iGcprp5H49IWbYSk4zgo-78" edge="1">
          <mxGeometry width="50" height="50" relative="1" as="geometry">
            <mxPoint as="sourcePoint" />
            <mxPoint x="30" as="targetPoint" />
            <Array as="points">
              <mxPoint x="10" />
            </Array>
          </mxGeometry>
        </mxCell>
        <mxCell id="iGcprp5H49IWbYSk4zgo-81" value="" style="group" parent="1" vertex="1" connectable="0">
          <mxGeometry x="500" y="1160" width="120" height="90" as="geometry" />
        </mxCell>
        <mxCell id="iGcprp5H49IWbYSk4zgo-82" value="" style="edgeStyle=orthogonalEdgeStyle;rounded=0;orthogonalLoop=1;jettySize=auto;html=1;" parent="iGcprp5H49IWbYSk4zgo-81" edge="1">
          <mxGeometry relative="1" as="geometry">
            <mxPoint x="60" as="sourcePoint" />
            <mxPoint x="60.018181818181915" y="30" as="targetPoint" />
          </mxGeometry>
        </mxCell>
        <mxCell id="iGcprp5H49IWbYSk4zgo-83" value="" style="group" parent="iGcprp5H49IWbYSk4zgo-81" vertex="1" connectable="0">
          <mxGeometry y="29.639999999999986" width="120" height="60.360000000000014" as="geometry" />
        </mxCell>
        <mxCell id="iGcprp5H49IWbYSk4zgo-84" value="masukkan nama paket foto" style="shape=parallelogram;perimeter=parallelogramPerimeter;whiteSpace=wrap;html=1;fixedSize=1;rounded=1;" parent="iGcprp5H49IWbYSk4zgo-83" vertex="1">
          <mxGeometry y="0.36000000000001364" width="120" height="60" as="geometry" />
        </mxCell>
        <mxCell id="iGcprp5H49IWbYSk4zgo-85" value="" style="endArrow=classic;html=1;rounded=0;entryX=0.2;entryY=0.102;entryDx=0;entryDy=0;entryPerimeter=0;" parent="iGcprp5H49IWbYSk4zgo-83" edge="1">
          <mxGeometry width="50" height="50" relative="1" as="geometry">
            <mxPoint as="sourcePoint" />
            <mxPoint x="30" as="targetPoint" />
            <Array as="points">
              <mxPoint x="10" />
            </Array>
          </mxGeometry>
        </mxCell>
        <mxCell id="iGcprp5H49IWbYSk4zgo-86" value="" style="group" parent="1" vertex="1" connectable="0">
          <mxGeometry x="500" y="1250" width="120" height="90" as="geometry" />
        </mxCell>
        <mxCell id="iGcprp5H49IWbYSk4zgo-87" value="" style="edgeStyle=orthogonalEdgeStyle;rounded=0;orthogonalLoop=1;jettySize=auto;html=1;" parent="iGcprp5H49IWbYSk4zgo-86" edge="1">
          <mxGeometry relative="1" as="geometry">
            <mxPoint x="60" as="sourcePoint" />
            <mxPoint x="60.018181818181915" y="30" as="targetPoint" />
          </mxGeometry>
        </mxCell>
        <mxCell id="iGcprp5H49IWbYSk4zgo-88" value="" style="group" parent="iGcprp5H49IWbYSk4zgo-86" vertex="1" connectable="0">
          <mxGeometry y="29.639999999999986" width="120" height="60.360000000000014" as="geometry" />
        </mxCell>
        <mxCell id="iGcprp5H49IWbYSk4zgo-89" value="masukkan nama harga paket" style="shape=parallelogram;perimeter=parallelogramPerimeter;whiteSpace=wrap;html=1;fixedSize=1;rounded=1;" parent="iGcprp5H49IWbYSk4zgo-88" vertex="1">
          <mxGeometry y="0.36000000000001364" width="120" height="60" as="geometry" />
        </mxCell>
        <mxCell id="iGcprp5H49IWbYSk4zgo-90" value="" style="endArrow=classic;html=1;rounded=0;entryX=0.2;entryY=0.102;entryDx=0;entryDy=0;entryPerimeter=0;" parent="iGcprp5H49IWbYSk4zgo-88" edge="1">
          <mxGeometry width="50" height="50" relative="1" as="geometry">
            <mxPoint as="sourcePoint" />
            <mxPoint x="30" as="targetPoint" />
            <Array as="points">
              <mxPoint x="10" />
            </Array>
          </mxGeometry>
        </mxCell>
        <mxCell id="iGcprp5H49IWbYSk4zgo-91" value="" style="group" parent="1" vertex="1" connectable="0">
          <mxGeometry x="340" y="920" width="120" height="60" as="geometry" />
        </mxCell>
        <mxCell id="iGcprp5H49IWbYSk4zgo-92" value="" style="group" parent="iGcprp5H49IWbYSk4zgo-91" vertex="1" connectable="0">
          <mxGeometry width="120" height="60" as="geometry" />
        </mxCell>
        <mxCell id="iGcprp5H49IWbYSk4zgo-48" value="" style="edgeStyle=orthogonalEdgeStyle;rounded=0;orthogonalLoop=1;jettySize=auto;html=1;" parent="iGcprp5H49IWbYSk4zgo-92" source="iGcprp5H49IWbYSk4zgo-1" target="iGcprp5H49IWbYSk4zgo-47" edge="1">
          <mxGeometry relative="1" as="geometry" />
        </mxCell>
        <mxCell id="iGcprp5H49IWbYSk4zgo-125" value="ya" style="edgeLabel;html=1;align=center;verticalAlign=middle;resizable=0;points=[];" parent="iGcprp5H49IWbYSk4zgo-48" vertex="1" connectable="0">
          <mxGeometry x="-0.5574" relative="1" as="geometry">
            <mxPoint as="offset" />
          </mxGeometry>
        </mxCell>
        <mxCell id="iGcprp5H49IWbYSk4zgo-60" value="" style="group" parent="iGcprp5H49IWbYSk4zgo-92" vertex="1" connectable="0">
          <mxGeometry width="120" height="60" as="geometry" />
        </mxCell>
        <mxCell id="iGcprp5H49IWbYSk4zgo-47" value="menampilkan&lt;div&gt;data pelanggan&lt;/div&gt;" style="shape=parallelogram;perimeter=parallelogramPerimeter;whiteSpace=wrap;html=1;fixedSize=1;rounded=1;" parent="iGcprp5H49IWbYSk4zgo-60" vertex="1">
          <mxGeometry width="120" height="60" as="geometry" />
        </mxCell>
        <mxCell id="iGcprp5H49IWbYSk4zgo-58" value="" style="endArrow=classic;html=1;rounded=0;entryX=0.2;entryY=0.102;entryDx=0;entryDy=0;entryPerimeter=0;" parent="iGcprp5H49IWbYSk4zgo-60" edge="1">
          <mxGeometry width="50" height="50" relative="1" as="geometry">
            <mxPoint x="90" y="60" as="sourcePoint" />
            <mxPoint x="120" y="60" as="targetPoint" />
            <Array as="points">
              <mxPoint x="100" y="60" />
            </Array>
          </mxGeometry>
        </mxCell>
        <mxCell id="iGcprp5H49IWbYSk4zgo-93" value="" style="edgeStyle=orthogonalEdgeStyle;rounded=0;orthogonalLoop=1;jettySize=auto;html=1;" parent="1" target="iGcprp5H49IWbYSk4zgo-95" edge="1">
          <mxGeometry relative="1" as="geometry">
            <mxPoint x="560" y="1340" as="sourcePoint" />
            <Array as="points">
              <mxPoint x="560" y="1370" />
              <mxPoint x="560" y="1370" />
            </Array>
          </mxGeometry>
        </mxCell>
        <mxCell id="iGcprp5H49IWbYSk4zgo-94" value="" style="group" parent="1" vertex="1" connectable="0">
          <mxGeometry x="500" y="1370" width="120" height="100" as="geometry" />
        </mxCell>
        <mxCell id="iGcprp5H49IWbYSk4zgo-95" value="data pelanggan&lt;div&gt;baru berhasil ditambahkan&lt;/div&gt;" style="shape=parallelogram;perimeter=parallelogramPerimeter;whiteSpace=wrap;html=1;fixedSize=1;rounded=1;" parent="iGcprp5H49IWbYSk4zgo-94" vertex="1">
          <mxGeometry width="120" height="60" as="geometry" />
        </mxCell>
        <mxCell id="iGcprp5H49IWbYSk4zgo-96" value="" style="endArrow=classic;html=1;rounded=0;entryX=0.2;entryY=0.102;entryDx=0;entryDy=0;entryPerimeter=0;" parent="iGcprp5H49IWbYSk4zgo-94" edge="1">
          <mxGeometry width="50" height="50" relative="1" as="geometry">
            <mxPoint x="90" y="60" as="sourcePoint" />
            <mxPoint x="120" y="60" as="targetPoint" />
            <Array as="points">
              <mxPoint x="100" y="60" />
            </Array>
          </mxGeometry>
        </mxCell>
        <mxCell id="iGcprp5H49IWbYSk4zgo-98" value="" style="group" parent="1" vertex="1" connectable="0">
          <mxGeometry x="340" y="1010" width="120" height="60" as="geometry" />
        </mxCell>
        <mxCell id="iGcprp5H49IWbYSk4zgo-50" value="" style="edgeStyle=orthogonalEdgeStyle;rounded=0;orthogonalLoop=1;jettySize=auto;html=1;" parent="iGcprp5H49IWbYSk4zgo-98" source="iGcprp5H49IWbYSk4zgo-47" target="iGcprp5H49IWbYSk4zgo-49" edge="1">
          <mxGeometry relative="1" as="geometry" />
        </mxCell>
        <mxCell id="iGcprp5H49IWbYSk4zgo-49" value="enter untuk&lt;div&gt;memilih lagi&lt;/div&gt;" style="shape=parallelogram;perimeter=parallelogramPerimeter;whiteSpace=wrap;html=1;fixedSize=1;rounded=1;" parent="iGcprp5H49IWbYSk4zgo-98" vertex="1">
          <mxGeometry width="120" height="60" as="geometry" />
        </mxCell>
        <mxCell id="iGcprp5H49IWbYSk4zgo-59" value="" style="endArrow=classic;html=1;rounded=0;entryX=0.2;entryY=0.102;entryDx=0;entryDy=0;entryPerimeter=0;" parent="iGcprp5H49IWbYSk4zgo-98" edge="1">
          <mxGeometry width="50" height="50" relative="1" as="geometry">
            <mxPoint as="sourcePoint" />
            <mxPoint x="30" as="targetPoint" />
            <Array as="points">
              <mxPoint x="10" />
            </Array>
          </mxGeometry>
        </mxCell>
        <mxCell id="iGcprp5H49IWbYSk4zgo-99" value="" style="group" parent="1" vertex="1" connectable="0">
          <mxGeometry x="500" y="1460" width="120" height="60" as="geometry" />
        </mxCell>
        <mxCell id="iGcprp5H49IWbYSk4zgo-100" value="" style="edgeStyle=orthogonalEdgeStyle;rounded=0;orthogonalLoop=1;jettySize=auto;html=1;" parent="iGcprp5H49IWbYSk4zgo-99" target="iGcprp5H49IWbYSk4zgo-101" edge="1">
          <mxGeometry relative="1" as="geometry" />
        </mxCell>
        <mxCell id="iGcprp5H49IWbYSk4zgo-101" value="enter untuk&lt;div&gt;memilih lagi&lt;/div&gt;" style="shape=parallelogram;perimeter=parallelogramPerimeter;whiteSpace=wrap;html=1;fixedSize=1;rounded=1;" parent="iGcprp5H49IWbYSk4zgo-99" vertex="1">
          <mxGeometry width="120" height="60" as="geometry" />
        </mxCell>
        <mxCell id="iGcprp5H49IWbYSk4zgo-102" value="" style="endArrow=classic;html=1;rounded=0;entryX=0.2;entryY=0.102;entryDx=0;entryDy=0;entryPerimeter=0;" parent="iGcprp5H49IWbYSk4zgo-99" edge="1">
          <mxGeometry width="50" height="50" relative="1" as="geometry">
            <mxPoint as="sourcePoint" />
            <mxPoint x="30" as="targetPoint" />
            <Array as="points">
              <mxPoint x="10" />
            </Array>
          </mxGeometry>
        </mxCell>
        <mxCell id="iGcprp5H49IWbYSk4zgo-103" value="" style="edgeStyle=orthogonalEdgeStyle;rounded=0;orthogonalLoop=1;jettySize=auto;html=1;" parent="1" source="iGcprp5H49IWbYSk4zgo-95" target="iGcprp5H49IWbYSk4zgo-101" edge="1">
          <mxGeometry relative="1" as="geometry" />
        </mxCell>
        <mxCell id="iGcprp5H49IWbYSk4zgo-104" style="edgeStyle=orthogonalEdgeStyle;rounded=0;orthogonalLoop=1;jettySize=auto;html=1;exitX=0.5;exitY=1;exitDx=0;exitDy=0;entryX=0;entryY=0.5;entryDx=0;entryDy=0;" parent="1" source="iGcprp5H49IWbYSk4zgo-101" target="Y8lYUrGbxnHDyQjCtU0--2" edge="1">
          <mxGeometry relative="1" as="geometry">
            <mxPoint x="560" y="1534.1" as="sourcePoint" />
            <mxPoint x="360" y="660" as="targetPoint" />
            <Array as="points">
              <mxPoint x="560" y="1540" />
              <mxPoint x="310" y="1540" />
              <mxPoint x="310" y="685" />
            </Array>
          </mxGeometry>
        </mxCell>
        <mxCell id="iGcprp5H49IWbYSk4zgo-108" value="" style="group" parent="1" vertex="1" connectable="0">
          <mxGeometry x="656" y="890" width="130" height="90" as="geometry" />
        </mxCell>
        <mxCell id="iGcprp5H49IWbYSk4zgo-109" value="" style="edgeStyle=orthogonalEdgeStyle;rounded=0;orthogonalLoop=1;jettySize=auto;html=1;" parent="iGcprp5H49IWbYSk4zgo-108" edge="1">
          <mxGeometry relative="1" as="geometry">
            <mxPoint x="64" as="sourcePoint" />
            <mxPoint x="64.01818181818192" y="30" as="targetPoint" />
          </mxGeometry>
        </mxCell>
        <mxCell id="iGcprp5H49IWbYSk4zgo-127" value="ya" style="edgeLabel;html=1;align=center;verticalAlign=middle;resizable=0;points=[];" parent="iGcprp5H49IWbYSk4zgo-109" vertex="1" connectable="0">
          <mxGeometry x="-0.2859" y="-1" relative="1" as="geometry">
            <mxPoint as="offset" />
          </mxGeometry>
        </mxCell>
        <mxCell id="iGcprp5H49IWbYSk4zgo-110" value="" style="group" parent="iGcprp5H49IWbYSk4zgo-108" vertex="1" connectable="0">
          <mxGeometry y="29.639999999999986" width="130" height="60.360000000000014" as="geometry" />
        </mxCell>
        <mxCell id="iGcprp5H49IWbYSk4zgo-111" value="masukkan nomor pelanggan yang&lt;div&gt;ingin diubah&lt;/div&gt;" style="shape=parallelogram;perimeter=parallelogramPerimeter;whiteSpace=wrap;html=1;fixedSize=1;rounded=1;" parent="iGcprp5H49IWbYSk4zgo-110" vertex="1">
          <mxGeometry y="0.36" width="130" height="60" as="geometry" />
        </mxCell>
        <mxCell id="iGcprp5H49IWbYSk4zgo-112" value="" style="endArrow=classic;html=1;rounded=0;entryX=0.2;entryY=0.102;entryDx=0;entryDy=0;entryPerimeter=0;" parent="iGcprp5H49IWbYSk4zgo-110" edge="1">
          <mxGeometry width="50" height="50" relative="1" as="geometry">
            <mxPoint as="sourcePoint" />
            <mxPoint x="30" as="targetPoint" />
            <Array as="points">
              <mxPoint x="10" />
            </Array>
          </mxGeometry>
        </mxCell>
        <mxCell id="iGcprp5H49IWbYSk4zgo-113" value="" style="group" parent="1" vertex="1" connectable="0">
          <mxGeometry x="660" y="980" width="120" height="90" as="geometry" />
        </mxCell>
        <mxCell id="iGcprp5H49IWbYSk4zgo-114" value="" style="edgeStyle=orthogonalEdgeStyle;rounded=0;orthogonalLoop=1;jettySize=auto;html=1;" parent="iGcprp5H49IWbYSk4zgo-113" edge="1">
          <mxGeometry relative="1" as="geometry">
            <mxPoint x="60" as="sourcePoint" />
            <mxPoint x="60.018181818181915" y="30" as="targetPoint" />
          </mxGeometry>
        </mxCell>
        <mxCell id="iGcprp5H49IWbYSk4zgo-115" value="" style="group" parent="iGcprp5H49IWbYSk4zgo-113" vertex="1" connectable="0">
          <mxGeometry y="29.639999999999986" width="120" height="60.360000000000014" as="geometry" />
        </mxCell>
        <mxCell id="iGcprp5H49IWbYSk4zgo-116" value="masukkan&lt;div&gt;perubahan data pelanggan&lt;/div&gt;" style="shape=parallelogram;perimeter=parallelogramPerimeter;whiteSpace=wrap;html=1;fixedSize=1;rounded=1;" parent="iGcprp5H49IWbYSk4zgo-115" vertex="1">
          <mxGeometry y="0.36000000000001364" width="120" height="60" as="geometry" />
        </mxCell>
        <mxCell id="iGcprp5H49IWbYSk4zgo-117" value="" style="endArrow=classic;html=1;rounded=0;entryX=0.2;entryY=0.102;entryDx=0;entryDy=0;entryPerimeter=0;" parent="iGcprp5H49IWbYSk4zgo-115" edge="1">
          <mxGeometry width="50" height="50" relative="1" as="geometry">
            <mxPoint as="sourcePoint" />
            <mxPoint x="30" as="targetPoint" />
            <Array as="points">
              <mxPoint x="10" />
            </Array>
          </mxGeometry>
        </mxCell>
        <mxCell id="iGcprp5H49IWbYSk4zgo-131" style="edgeStyle=orthogonalEdgeStyle;rounded=0;orthogonalLoop=1;jettySize=auto;html=1;entryX=0;entryY=0.5;entryDx=0;entryDy=0;" parent="1" target="Y8lYUrGbxnHDyQjCtU0--2" edge="1">
          <mxGeometry relative="1" as="geometry">
            <mxPoint x="720" y="1220" as="sourcePoint" />
            <Array as="points">
              <mxPoint x="720" y="1540" />
              <mxPoint x="310" y="1540" />
              <mxPoint x="310" y="685" />
            </Array>
          </mxGeometry>
        </mxCell>
        <mxCell id="iGcprp5H49IWbYSk4zgo-146" value="" style="edgeStyle=orthogonalEdgeStyle;rounded=0;orthogonalLoop=1;jettySize=auto;html=1;" parent="1" source="iGcprp5H49IWbYSk4zgo-128" target="iGcprp5H49IWbYSk4zgo-144" edge="1">
          <mxGeometry relative="1" as="geometry" />
        </mxCell>
        <mxCell id="iGcprp5H49IWbYSk4zgo-128" value="data pelanggan&lt;div&gt;&lt;span style=&quot;background-color: initial;&quot;&gt;berhasil diubah&lt;/span&gt;&lt;/div&gt;" style="shape=parallelogram;perimeter=parallelogramPerimeter;whiteSpace=wrap;html=1;fixedSize=1;rounded=1;" parent="1" vertex="1">
          <mxGeometry x="660" y="1100" width="120" height="60" as="geometry" />
        </mxCell>
        <mxCell id="iGcprp5H49IWbYSk4zgo-129" value="" style="endArrow=classic;html=1;rounded=0;entryX=0.2;entryY=0.102;entryDx=0;entryDy=0;entryPerimeter=0;" parent="1" edge="1">
          <mxGeometry width="50" height="50" relative="1" as="geometry">
            <mxPoint x="746" y="1160" as="sourcePoint" />
            <mxPoint x="776" y="1160" as="targetPoint" />
            <Array as="points">
              <mxPoint x="756" y="1160" />
            </Array>
          </mxGeometry>
        </mxCell>
        <mxCell id="iGcprp5H49IWbYSk4zgo-130" value="" style="edgeStyle=orthogonalEdgeStyle;rounded=0;orthogonalLoop=1;jettySize=auto;html=1;" parent="1" source="iGcprp5H49IWbYSk4zgo-116" target="iGcprp5H49IWbYSk4zgo-128" edge="1">
          <mxGeometry relative="1" as="geometry" />
        </mxCell>
        <mxCell id="iGcprp5H49IWbYSk4zgo-132" value="" style="group" parent="1" vertex="1" connectable="0">
          <mxGeometry x="816" y="890" width="130" height="90" as="geometry" />
        </mxCell>
        <mxCell id="iGcprp5H49IWbYSk4zgo-133" value="" style="edgeStyle=orthogonalEdgeStyle;rounded=0;orthogonalLoop=1;jettySize=auto;html=1;" parent="iGcprp5H49IWbYSk4zgo-132" edge="1">
          <mxGeometry relative="1" as="geometry">
            <mxPoint x="64" as="sourcePoint" />
            <mxPoint x="64.01818181818192" y="30" as="targetPoint" />
          </mxGeometry>
        </mxCell>
        <mxCell id="iGcprp5H49IWbYSk4zgo-134" value="ya" style="edgeLabel;html=1;align=center;verticalAlign=middle;resizable=0;points=[];" parent="iGcprp5H49IWbYSk4zgo-133" vertex="1" connectable="0">
          <mxGeometry x="-0.2859" y="-1" relative="1" as="geometry">
            <mxPoint as="offset" />
          </mxGeometry>
        </mxCell>
        <mxCell id="iGcprp5H49IWbYSk4zgo-135" value="" style="group" parent="iGcprp5H49IWbYSk4zgo-132" vertex="1" connectable="0">
          <mxGeometry y="29.639999999999986" width="130" height="60.360000000000014" as="geometry" />
        </mxCell>
        <mxCell id="iGcprp5H49IWbYSk4zgo-136" value="masukkan nomor pelanggan yang&lt;div&gt;ingin dihapus&lt;/div&gt;" style="shape=parallelogram;perimeter=parallelogramPerimeter;whiteSpace=wrap;html=1;fixedSize=1;rounded=1;" parent="iGcprp5H49IWbYSk4zgo-135" vertex="1">
          <mxGeometry y="0.36" width="130" height="60" as="geometry" />
        </mxCell>
        <mxCell id="iGcprp5H49IWbYSk4zgo-137" value="" style="endArrow=classic;html=1;rounded=0;entryX=0.2;entryY=0.102;entryDx=0;entryDy=0;entryPerimeter=0;" parent="iGcprp5H49IWbYSk4zgo-135" edge="1">
          <mxGeometry width="50" height="50" relative="1" as="geometry">
            <mxPoint as="sourcePoint" />
            <mxPoint x="30" as="targetPoint" />
            <Array as="points">
              <mxPoint x="10" />
            </Array>
          </mxGeometry>
        </mxCell>
        <mxCell id="iGcprp5H49IWbYSk4zgo-141" style="edgeStyle=orthogonalEdgeStyle;rounded=0;orthogonalLoop=1;jettySize=auto;html=1;entryX=0;entryY=0.5;entryDx=0;entryDy=0;" parent="1" target="Y8lYUrGbxnHDyQjCtU0--2" edge="1">
          <mxGeometry relative="1" as="geometry">
            <mxPoint x="881" y="1150" as="sourcePoint" />
            <Array as="points">
              <mxPoint x="881" y="1540" />
              <mxPoint x="310" y="1540" />
              <mxPoint x="310" y="685" />
            </Array>
          </mxGeometry>
        </mxCell>
        <mxCell id="iGcprp5H49IWbYSk4zgo-151" value="" style="edgeStyle=orthogonalEdgeStyle;rounded=0;orthogonalLoop=1;jettySize=auto;html=1;" parent="1" source="iGcprp5H49IWbYSk4zgo-138" target="iGcprp5H49IWbYSk4zgo-149" edge="1">
          <mxGeometry relative="1" as="geometry" />
        </mxCell>
        <mxCell id="iGcprp5H49IWbYSk4zgo-138" value="data pelanggan&lt;div&gt;&lt;span style=&quot;background-color: initial;&quot;&gt;berhasil dihapus&lt;/span&gt;&lt;/div&gt;" style="shape=parallelogram;perimeter=parallelogramPerimeter;whiteSpace=wrap;html=1;fixedSize=1;rounded=1;" parent="1" vertex="1">
          <mxGeometry x="821" y="1009.64" width="120" height="60" as="geometry" />
        </mxCell>
        <mxCell id="iGcprp5H49IWbYSk4zgo-139" value="" style="endArrow=classic;html=1;rounded=0;entryX=0.2;entryY=0.102;entryDx=0;entryDy=0;entryPerimeter=0;" parent="1" edge="1">
          <mxGeometry width="50" height="50" relative="1" as="geometry">
            <mxPoint x="907" y="1069.64" as="sourcePoint" />
            <mxPoint x="937" y="1069.64" as="targetPoint" />
            <Array as="points">
              <mxPoint x="917" y="1069.64" />
            </Array>
          </mxGeometry>
        </mxCell>
        <mxCell id="iGcprp5H49IWbYSk4zgo-140" value="" style="edgeStyle=orthogonalEdgeStyle;rounded=0;orthogonalLoop=1;jettySize=auto;html=1;" parent="1" source="iGcprp5H49IWbYSk4zgo-136" target="iGcprp5H49IWbYSk4zgo-138" edge="1">
          <mxGeometry relative="1" as="geometry" />
        </mxCell>
        <mxCell id="iGcprp5H49IWbYSk4zgo-142" value="" style="group" parent="1" vertex="1" connectable="0">
          <mxGeometry x="660" y="1190" width="120" height="60" as="geometry" />
        </mxCell>
        <mxCell id="iGcprp5H49IWbYSk4zgo-143" value="" style="edgeStyle=orthogonalEdgeStyle;rounded=0;orthogonalLoop=1;jettySize=auto;html=1;" parent="iGcprp5H49IWbYSk4zgo-142" target="iGcprp5H49IWbYSk4zgo-144" edge="1">
          <mxGeometry relative="1" as="geometry" />
        </mxCell>
        <mxCell id="iGcprp5H49IWbYSk4zgo-144" value="enter untuk&lt;div&gt;memilih lagi&lt;/div&gt;" style="shape=parallelogram;perimeter=parallelogramPerimeter;whiteSpace=wrap;html=1;fixedSize=1;rounded=1;" parent="iGcprp5H49IWbYSk4zgo-142" vertex="1">
          <mxGeometry width="120" height="60" as="geometry" />
        </mxCell>
        <mxCell id="iGcprp5H49IWbYSk4zgo-145" value="" style="endArrow=classic;html=1;rounded=0;entryX=0.2;entryY=0.102;entryDx=0;entryDy=0;entryPerimeter=0;" parent="iGcprp5H49IWbYSk4zgo-142" edge="1">
          <mxGeometry width="50" height="50" relative="1" as="geometry">
            <mxPoint as="sourcePoint" />
            <mxPoint x="30" as="targetPoint" />
            <Array as="points">
              <mxPoint x="10" />
            </Array>
          </mxGeometry>
        </mxCell>
        <mxCell id="iGcprp5H49IWbYSk4zgo-147" value="" style="group" parent="1" vertex="1" connectable="0">
          <mxGeometry x="820" y="1100" width="120" height="60" as="geometry" />
        </mxCell>
        <mxCell id="iGcprp5H49IWbYSk4zgo-148" value="" style="edgeStyle=orthogonalEdgeStyle;rounded=0;orthogonalLoop=1;jettySize=auto;html=1;" parent="iGcprp5H49IWbYSk4zgo-147" target="iGcprp5H49IWbYSk4zgo-149" edge="1">
          <mxGeometry relative="1" as="geometry" />
        </mxCell>
        <mxCell id="iGcprp5H49IWbYSk4zgo-149" value="enter untuk&lt;div&gt;memilih lagi&lt;/div&gt;" style="shape=parallelogram;perimeter=parallelogramPerimeter;whiteSpace=wrap;html=1;fixedSize=1;rounded=1;" parent="iGcprp5H49IWbYSk4zgo-147" vertex="1">
          <mxGeometry width="120" height="60" as="geometry" />
        </mxCell>
        <mxCell id="iGcprp5H49IWbYSk4zgo-150" value="" style="endArrow=classic;html=1;rounded=0;entryX=0.2;entryY=0.102;entryDx=0;entryDy=0;entryPerimeter=0;" parent="iGcprp5H49IWbYSk4zgo-147" edge="1">
          <mxGeometry width="50" height="50" relative="1" as="geometry">
            <mxPoint as="sourcePoint" />
            <mxPoint x="30" as="targetPoint" />
            <Array as="points">
              <mxPoint x="10" />
            </Array>
          </mxGeometry>
        </mxCell>
        <mxCell id="iGcprp5H49IWbYSk4zgo-152" value="" style="group" parent="1" vertex="1" connectable="0">
          <mxGeometry x="980" y="920" width="120" height="60" as="geometry" />
        </mxCell>
        <mxCell id="iGcprp5H49IWbYSk4zgo-153" value="" style="edgeStyle=orthogonalEdgeStyle;rounded=0;orthogonalLoop=1;jettySize=auto;html=1;" parent="iGcprp5H49IWbYSk4zgo-152" target="iGcprp5H49IWbYSk4zgo-154" edge="1">
          <mxGeometry relative="1" as="geometry" />
        </mxCell>
        <mxCell id="iGcprp5H49IWbYSk4zgo-154" value="keluar dari&lt;div&gt;program&lt;/div&gt;" style="shape=parallelogram;perimeter=parallelogramPerimeter;whiteSpace=wrap;html=1;fixedSize=1;rounded=1;" parent="iGcprp5H49IWbYSk4zgo-152" vertex="1">
          <mxGeometry width="120" height="60" as="geometry" />
        </mxCell>
        <mxCell id="iGcprp5H49IWbYSk4zgo-155" value="" style="endArrow=classic;html=1;rounded=0;entryX=0.2;entryY=0.102;entryDx=0;entryDy=0;entryPerimeter=0;" parent="iGcprp5H49IWbYSk4zgo-152" edge="1">
          <mxGeometry width="50" height="50" relative="1" as="geometry">
            <mxPoint x="90" y="60" as="sourcePoint" />
            <mxPoint x="120" y="60" as="targetPoint" />
            <Array as="points">
              <mxPoint x="100" y="60" />
            </Array>
          </mxGeometry>
        </mxCell>
        <mxCell id="iGcprp5H49IWbYSk4zgo-158" value="selesai" style="rounded=1;whiteSpace=wrap;html=1;" parent="1" vertex="1">
          <mxGeometry x="1010" y="1010" width="60" height="30" as="geometry" />
        </mxCell>
        <mxCell id="iGcprp5H49IWbYSk4zgo-159" value="" style="edgeStyle=orthogonalEdgeStyle;rounded=0;orthogonalLoop=1;jettySize=auto;html=1;" parent="1" source="iGcprp5H49IWbYSk4zgo-154" target="iGcprp5H49IWbYSk4zgo-158" edge="1">
          <mxGeometry relative="1" as="geometry" />
        </mxCell>
        <mxCell id="iGcprp5H49IWbYSk4zgo-160" value="" style="edgeStyle=orthogonalEdgeStyle;rounded=0;orthogonalLoop=1;jettySize=auto;html=1;" parent="1" edge="1">
          <mxGeometry relative="1" as="geometry">
            <mxPoint x="1080" y="849.71" as="sourcePoint" />
            <mxPoint x="1160" y="849.71" as="targetPoint" />
          </mxGeometry>
        </mxCell>
        <mxCell id="iGcprp5H49IWbYSk4zgo-161" value="tidak" style="edgeLabel;html=1;align=center;verticalAlign=middle;resizable=0;points=[];" parent="iGcprp5H49IWbYSk4zgo-160" vertex="1" connectable="0">
          <mxGeometry x="-0.1458" relative="1" as="geometry">
            <mxPoint y="1" as="offset" />
          </mxGeometry>
        </mxCell>
        <mxCell id="iGcprp5H49IWbYSk4zgo-162" value="" style="group" parent="1" vertex="1" connectable="0">
          <mxGeometry x="1150" y="820" width="120" height="60" as="geometry" />
        </mxCell>
        <mxCell id="iGcprp5H49IWbYSk4zgo-163" value="" style="edgeStyle=orthogonalEdgeStyle;rounded=0;orthogonalLoop=1;jettySize=auto;html=1;" parent="iGcprp5H49IWbYSk4zgo-162" target="iGcprp5H49IWbYSk4zgo-164" edge="1">
          <mxGeometry relative="1" as="geometry" />
        </mxCell>
        <mxCell id="iGcprp5H49IWbYSk4zgo-165" value="" style="endArrow=classic;html=1;rounded=0;entryX=0.2;entryY=0.102;entryDx=0;entryDy=0;entryPerimeter=0;" parent="iGcprp5H49IWbYSk4zgo-162" edge="1">
          <mxGeometry width="50" height="50" relative="1" as="geometry">
            <mxPoint x="90" y="60" as="sourcePoint" />
            <mxPoint x="120" y="60" as="targetPoint" />
            <Array as="points">
              <mxPoint x="100" y="60" />
            </Array>
          </mxGeometry>
        </mxCell>
        <mxCell id="iGcprp5H49IWbYSk4zgo-166" style="edgeStyle=orthogonalEdgeStyle;rounded=0;orthogonalLoop=1;jettySize=auto;html=1;exitX=0.5;exitY=0;exitDx=0;exitDy=0;entryX=1;entryY=0.5;entryDx=0;entryDy=0;" parent="1" source="iGcprp5H49IWbYSk4zgo-164" target="Y8lYUrGbxnHDyQjCtU0--2" edge="1">
          <mxGeometry relative="1" as="geometry">
            <Array as="points">
              <mxPoint x="1210" y="685" />
            </Array>
          </mxGeometry>
        </mxCell>
        <mxCell id="iGcprp5H49IWbYSk4zgo-164" value="menu tidak&lt;div&gt;tersedia&lt;/div&gt;" style="shape=parallelogram;perimeter=parallelogramPerimeter;whiteSpace=wrap;html=1;fixedSize=1;rounded=1;" parent="1" vertex="1">
          <mxGeometry x="1150" y="820" width="120" height="60" as="geometry" />
        </mxCell>
      </root>
    </mxGraphModel>
  </diagram>
</mxfile>
